<svg width="39" height="30" viewBox="0 0 39 30" fill="none" xmlns="http://www.w3.org/2000/svg">
<path d="M30.5929 1.272H35.2009L24.2089 13.656L36.1129 27H31.2169L19.6009 13.944V27H15.3769V1.272H19.6009V13.752L30.5929 1.272Z" fill="#8475DF"/>
<path d="M17.8688 27.48C15.5968 27.48 13.5648 27.016 11.7728 26.088C10.0128 25.16 8.62075 23.72 7.59675 21.768C6.60475 19.816 6.10875 17.32 6.10875 14.28C6.10875 11.112 6.63675 8.536 7.69275 6.552C8.74875 4.568 10.1728 3.112 11.9648 2.184C13.7888 1.256 15.8528 0.792 18.1568 0.792C19.4688 0.792 20.7328 0.936 21.9488 1.224C23.1648 1.48 24.1568 1.8 24.9248 2.184L23.6288 5.688C22.8608 5.4 21.9648 5.128 20.9408 4.872C19.9168 4.616 18.9568 4.488 18.0608 4.488C16.3328 4.488 14.9088 4.856 13.7888 5.592C12.6688 6.328 11.8368 7.416 11.2928 8.856C10.7488 10.296 10.4768 12.088 10.4768 14.232C10.4768 16.28 10.7488 18.024 11.2928 19.464C11.8368 20.904 12.6528 21.992 13.7408 22.728C14.8288 23.464 16.1888 23.832 17.8208 23.832C19.2288 23.832 20.4608 23.688 21.5168 23.4C22.6048 23.112 23.5968 22.76 24.4928 22.344V26.088C23.6288 26.536 22.6688 26.872 21.6128 27.096C20.5888 27.352 19.3408 27.48 17.8688 27.48Z" fill="#8475DF"/>
</svg>
